# xmcd
#
# Track frame offsets:
#	150
#	16197
#	35296
#	51905
#	61797
#	75306
#	93567
#	113816
#	128662
#	145136
#	159345
#	174246
#	186631
#	199011
#	213026
#	233746
#	246018
#	257092
#
# Disc length: 3618 seconds
# Revision: 1
# Processed by: cddbd v1.5.2PL0 Copyright (c) Steve Scherf et al.
# Submitted via: dBpowerAMP V12.0
#
DISCID=e30e2012
DTITLE=Steve Mardon - Critic's Darling
DYEAR=2004
DGENRE=Alt. Country
TTITLE0=Critic's Darling
TTITLE1=I'll Take a Tuesday
TTITLE2=Right on Red
TTITLE3=Rated X
TTITLE4=High On Your Love
TTITLE5=Tex's Tune
TTITLE6=Doctors Today
TTITLE7=Elpie's Lament
TTITLE8=Fear Factor
TTITLE9=Coffee and Beer
TTITLE10=New Girl at the Office
TTITLE11=When I'm Drunk
TTITLE12=Smiles and Laughs and Dances
TTITLE13=Distracted
TTITLE14=Short-Term Romance, Long-Term Pain
TTITLE15=CD Song
TTITLE16=Crossword Puzzle Blues (Live)
TTITLE17=I Couldn't Have Done It Without You (Live)
EXTD=
EXTT0=
EXTT1=
EXTT2=
EXTT3=
EXTT4=
EXTT5=
EXTT6=
EXTT7=
EXTT8=
EXTT9=
EXTT10=
EXTT11=
EXTT12=
EXTT13=
EXTT14=
EXTT15=
EXTT16=
EXTT17=
PLAYORDER=
